<svg 
class="svg-icon" 
style="width: 24px; height: 24px;vertical-align: middle;fill: currentColor;overflow: hidden;"
 viewBox="0 0 1024 1024" version="1.1" 
 xmlns="http://www.w3.org/2000/svg">
 <path 
 d="M853.333333 938.666667h-71.253333a85.333333 85.333333 0 0 1-85.333333-85.333334v-229.12a39.253333 39.253333 0 0 0-29.44-39.68 35.84 35.84 0 0 0-28.586667 8.106667 36.266667 36.266667 0 0 0-12.8 27.733333V853.333333a85.333333 85.333333 0 0 1-85.333333 85.333334H469.333333a85.333333 85.333333 0 0 1-85.333333-85.333334v-232.96a277.333333 277.333333 0 1 1 554.666667 0V853.333333a85.333333 85.333333 0 0 1-85.333334 85.333334z m-192-439.893334a159.146667 159.146667 0 0 1 20.053334 0 124.16 124.16 0 0 1 100.693333 123.733334V853.333333H853.333333v-232.96a192 192 0 1 0-384 0V853.333333h71.253334v-232.96a121.6 121.6 0 0 1 120.746666-121.6zM256 938.666667H170.666667a85.333333 85.333333 0 0 1-85.333334-85.333334V426.666667a85.333333 85.333333 0 0 1 85.333334-85.333334h85.333333a85.333333 85.333333 0 0 1 85.333333 85.333334v426.666666a85.333333 85.333333 0 0 1-85.333333 85.333334zM170.666667 426.666667v426.666666h85.333333V426.666667zM213.333333 298.666667a128 128 0 1 1 128-128 128 128 0 0 1-128 128z m0-170.666667a42.666667 42.666667 0 1 0 42.666667 42.666667 42.666667 42.666667 0 0 0-42.666667-42.666667z" 
 fill="gray" />
</svg>