<svg width="41" height="17" viewBox="0 0 41 17" fill="none" xmlns="http://www.w3.org/2000/svg">
<path d="M0.71875 11.2812C0.791667 10.9375 0.84375 10.6354 0.875 10.375C0.916667 10.1042 0.947917 9.88021 0.96875 9.70312C0.989583 9.49479 1 9.31771 1 9.17188C0.989583 8.99479 0.979167 8.78646 0.96875 8.54688C0.96875 8.29688 0.958333 8.05208 0.9375 7.8125C0.927083 7.5625 0.911458 7.34375 0.890625 7.15625C0.869792 6.95833 0.84375 6.81771 0.8125 6.73438C0.770833 6.65104 0.713542 6.5625 0.640625 6.46875C0.494792 6.29167 0.28125 6.11979 0 5.95312C0.239583 5.90104 0.442708 5.85938 0.609375 5.82812C0.786458 5.78646 0.932292 5.75 1.04688 5.71875C1.17188 5.67708 1.28125 5.64062 1.375 5.60938C1.45833 5.57812 1.55729 5.54688 1.67188 5.51562C1.76562 5.49479 1.88021 5.46875 2.01562 5.4375C2.15104 5.40625 2.30729 5.36979 2.48438 5.32812L2.4375 6.75C2.77083 6.35417 3.10938 6.05729 3.45312 5.85938C3.79688 5.66146 4.11979 5.52083 4.42188 5.4375C4.76562 5.33333 5.10417 5.28125 5.4375 5.28125C5.85417 5.30208 6.23958 5.36979 6.59375 5.48438C6.95833 5.59896 7.27083 5.73438 7.53125 5.89062C7.80208 6.03646 8.02083 6.19271 8.1875 6.35938C8.35417 6.52604 8.45312 6.67188 8.48438 6.79688C8.60938 7.20312 8.64062 7.57812 8.57812 7.92188C8.51562 8.25521 8.43229 8.58333 8.32812 8.90625C8.23438 9.21875 8.15104 9.53125 8.07812 9.84375C8.01562 10.1562 8.04167 10.4948 8.15625 10.8594C8.19792 10.9531 8.23958 11.0469 8.28125 11.1406C8.32292 11.224 8.375 11.3073 8.4375 11.3906C8.5 11.474 8.57292 11.5417 8.65625 11.5938C8.54167 11.5833 8.42708 11.5781 8.3125 11.5781C8.19792 11.5677 8.09375 11.5573 8 11.5469C7.88542 11.5365 7.78125 11.526 7.6875 11.5156C7.58333 11.5052 7.44271 11.5 7.26562 11.5C6.96354 11.5 6.49479 11.5156 5.85938 11.5469C5.95312 11.3281 6.02604 11.1458 6.07812 11C6.14062 10.8438 6.19271 10.7188 6.23438 10.625C6.27604 10.5104 6.30729 10.4219 6.32812 10.3594C6.45312 10.0573 6.52604 9.71354 6.54688 9.32812C6.57812 8.94271 6.55208 8.55208 6.46875 8.15625C6.4375 8.02083 6.38542 7.85938 6.3125 7.67188C6.23958 7.48438 6.14062 7.30208 6.01562 7.125C5.90104 6.94792 5.76042 6.79688 5.59375 6.67188C5.4375 6.54688 5.25521 6.47396 5.04688 6.45312C4.83854 6.43229 4.60417 6.48438 4.34375 6.60938C4.09375 6.73438 3.82292 6.96354 3.53125 7.29688C3.3125 7.57812 3.14062 7.92188 3.01562 8.32812C2.90104 8.67188 2.82292 9.10417 2.78125 9.625C2.73958 10.1354 2.80208 10.7344 2.96875 11.4219C2.82292 11.401 2.6875 11.3906 2.5625 11.3906C2.4375 11.3802 2.33333 11.3698 2.25 11.3594C2.14583 11.349 2.05208 11.3385 1.96875 11.3281C1.875 11.3281 1.77083 11.3229 1.65625 11.3125C1.55208 11.3125 1.42188 11.3125 1.26562 11.3125C1.10938 11.3021 0.927083 11.2917 0.71875 11.2812ZM13.7969 6C14.0677 6 14.349 6.05208 14.6406 6.15625C14.9323 6.25 15.2135 6.375 15.4844 6.53125C15.7552 6.67708 16 6.83854 16.2188 7.01562C16.4479 7.18229 16.6354 7.34375 16.7812 7.5C17.0417 7.78125 17.2188 8.16146 17.3125 8.64062C17.4167 9.10938 17.4375 9.59375 17.375 10.0938C17.3125 10.5833 17.1667 11.0469 16.9375 11.4844C16.7083 11.9219 16.3906 12.2448 15.9844 12.4531C15.6927 12.599 15.4062 12.7135 15.125 12.7969C14.8438 12.8802 14.5729 12.9427 14.3125 12.9844C14.0521 13.026 13.8073 13.0469 13.5781 13.0469C13.349 13.0469 13.151 13.0417 12.9844 13.0312C12.6719 13.0104 12.3438 12.901 12 12.7031C11.6667 12.5052 11.349 12.2604 11.0469 11.9688C10.7552 11.6771 10.5052 11.3594 10.2969 11.0156C10.0885 10.6615 9.96354 10.3281 9.92188 10.0156C9.85938 9.58854 9.84896 9.14062 9.89062 8.67188C9.93229 8.20312 10.0833 7.77083 10.3438 7.375C10.6146 6.97917 11.0208 6.65104 11.5625 6.39062C12.1146 6.13021 12.8594 6 13.7969 6ZM13.2812 12.0625C13.3958 12.0833 13.5521 12.0573 13.75 11.9844C13.9479 11.901 14.1406 11.7708 14.3281 11.5938C14.526 11.4167 14.6979 11.1927 14.8438 10.9219C15 10.6406 15.0938 10.3021 15.125 9.90625C15.1562 9.52083 15.1562 9.16667 15.125 8.84375C15.1042 8.52083 15.0573 8.23958 14.9844 8C14.9115 7.75 14.8281 7.54688 14.7344 7.39062C14.6406 7.23438 14.5417 7.125 14.4375 7.0625C14.2604 6.96875 14.0469 6.89583 13.7969 6.84375C13.5469 6.78125 13.3333 6.79167 13.1562 6.875C13.0729 6.91667 12.9688 7.00521 12.8438 7.14062C12.7188 7.27604 12.5938 7.44792 12.4688 7.65625C12.3438 7.85417 12.2292 8.08333 12.125 8.34375C12.0312 8.60417 11.9635 8.875 11.9219 9.15625C11.8802 9.4375 11.8698 9.73958 11.8906 10.0625C11.9219 10.3854 11.9896 10.6927 12.0938 10.9844C12.1979 11.2656 12.3438 11.5104 12.5312 11.7188C12.7292 11.9167 12.9792 12.0312 13.2812 12.0625ZM17.9375 3.15625C18.25 3.1875 18.5104 3.21354 18.7188 3.23438C18.9375 3.25521 19.1146 3.27083 19.25 3.28125C19.4062 3.29167 19.5312 3.29688 19.625 3.29688C19.7188 3.30729 19.8438 3.30729 20 3.29688C20.1354 3.28646 20.3125 3.27604 20.5312 3.26562C20.75 3.24479 21.026 3.21354 21.3594 3.17188C21.2865 3.27604 21.2292 3.36979 21.1875 3.45312C21.1458 3.52604 21.1094 3.59375 21.0781 3.65625L20.9844 3.84375C20.9635 3.90625 20.9427 3.96875 20.9219 4.03125C20.901 4.08333 20.8802 4.14583 20.8594 4.21875C20.849 4.29167 20.8385 4.36979 20.8281 4.45312H23.2344L23.0156 5.71875L20.8125 5.59375C20.7604 6.125 20.724 6.53646 20.7031 6.82812C20.6823 7.11979 20.6615 7.33333 20.6406 7.46875L20.6094 7.75C20.5781 8.14583 20.5469 8.57812 20.5156 9.04688C20.4844 9.50521 20.474 9.93229 20.4844 10.3281C20.4948 10.724 20.5312 11.0573 20.5938 11.3281C20.6562 11.5885 20.7656 11.7188 20.9219 11.7188C21.0781 11.7188 21.224 11.6771 21.3594 11.5938C21.4948 11.5104 21.6094 11.4115 21.7031 11.2969C21.8073 11.1823 21.8854 11.0677 21.9375 10.9531C21.9896 10.8281 22.0156 10.7344 22.0156 10.6719C22.0156 10.6094 22 10.5365 21.9688 10.4531C21.9167 10.2969 21.8229 10.099 21.6875 9.85938C21.9896 9.93229 22.2552 10.0052 22.4844 10.0781C22.599 10.1198 22.7031 10.1615 22.7969 10.2031C22.901 10.2448 23.0208 10.2917 23.1562 10.3438C23.2708 10.3958 23.4167 10.4583 23.5938 10.5312C23.7708 10.6042 23.9792 10.6927 24.2188 10.7969C23.9896 10.8385 23.8229 10.9062 23.7188 11C23.6562 11.0417 23.6094 11.0885 23.5781 11.1406C23.5052 11.2552 23.4219 11.4115 23.3281 11.6094C23.2344 11.7969 23.0938 11.9844 22.9062 12.1719C22.7188 12.3594 22.4635 12.526 22.1406 12.6719C21.8281 12.8177 21.4062 12.901 20.875 12.9219C20.3229 12.9427 19.901 12.849 19.6094 12.6406C19.3281 12.4323 19.1198 12.1927 18.9844 11.9219C18.8594 11.6406 18.7865 11.3646 18.7656 11.0938C18.7448 10.8229 18.7292 10.6406 18.7188 10.5469C18.7083 10.4531 18.7083 10.2188 18.7188 9.84375C18.7292 9.46875 18.7448 9.05729 18.7656 8.60938C18.7865 8.15104 18.8073 7.71354 18.8281 7.29688C18.849 6.86979 18.8594 6.55729 18.8594 6.35938C18.8594 6.25521 18.8646 6.14583 18.875 6.03125C18.875 5.9375 18.875 5.83854 18.875 5.73438C18.8854 5.61979 18.8906 5.51042 18.8906 5.40625L16.625 5.39062L16.5312 4.5L18.8125 4.5625C18.7917 4.44792 18.7656 4.34375 18.7344 4.25C18.7135 4.14583 18.6927 4.0625 18.6719 4C18.6406 3.92708 18.6094 3.86458 18.5781 3.8125C18.5365 3.76042 18.4896 3.70312 18.4375 3.64062C18.3854 3.58854 18.3177 3.52083 18.2344 3.4375C18.151 3.35417 18.0521 3.26042 17.9375 3.15625ZM23.5781 6.01562L26.4531 6.04688C26.2865 6.68229 26.1615 7.22396 26.0781 7.67188C26.0052 8.11979 25.9583 8.49479 25.9375 8.79688C25.8958 9.14062 25.8854 9.43229 25.9062 9.67188C25.9375 9.89062 25.9896 10.125 26.0625 10.375C26.125 10.5833 26.2188 10.8229 26.3438 11.0938C26.4688 11.3646 26.6354 11.6354 26.8438 11.9062C26.7188 11.8646 26.5833 11.8333 26.4375 11.8125C26.2917 11.7917 26.1562 11.776 26.0312 11.7656C25.8854 11.7552 25.7396 11.7552 25.5938 11.7656C25.4479 11.776 25.2865 11.7917 25.1094 11.8125C24.9635 11.8333 24.7865 11.8594 24.5781 11.8906C24.3698 11.9219 24.151 11.9635 23.9219 12.0156C24.0781 11.5469 24.1979 11.1406 24.2812 10.7969C24.375 10.4531 24.4427 10.1667 24.4844 9.9375C24.526 9.66667 24.5521 9.44792 24.5625 9.28125C24.5625 9.07292 24.5625 8.83854 24.5625 8.57812C24.5625 8.30729 24.5625 8.04688 24.5625 7.79688C24.5625 7.54688 24.5573 7.32812 24.5469 7.14062C24.5365 6.94271 24.5156 6.81771 24.4844 6.76562L24.3281 6.60938C24.2656 6.55729 24.1719 6.48438 24.0469 6.39062C23.9323 6.28646 23.776 6.16146 23.5781 6.01562ZM24.6875 3.60938C24.9062 3.49479 25.125 3.46354 25.3438 3.51562C25.5729 3.56771 25.75 3.66667 25.875 3.8125C26 3.95833 26.0417 4.13021 26 4.32812C25.9688 4.52604 25.8021 4.71875 25.5 4.90625C25.1979 5.08333 24.9323 5.14583 24.7031 5.09375C24.474 5.04167 24.3125 4.93229 24.2188 4.76562C24.125 4.59896 24.1094 4.40625 24.1719 4.1875C24.2344 3.95833 24.4062 3.76562 24.6875 3.60938ZM28.0938 13.5625C28.3021 13.4167 28.4688 13.224 28.5938 12.9844C28.7188 12.7448 28.8125 12.5104 28.875 12.2812C28.9479 12.0104 28.9948 11.7292 29.0156 11.4375C29.0156 11.2604 29.0052 10.9792 28.9844 10.5938C28.9635 10.2708 28.9323 9.82812 28.8906 9.26562C28.849 8.69271 28.7865 7.95312 28.7031 7.04688C28.5885 7.05729 28.4896 7.06771 28.4062 7.07812C28.3229 7.07812 28.2552 7.07812 28.2031 7.07812H28.0312C27.9792 7.07812 27.9167 7.08333 27.8438 7.09375C27.7812 7.10417 27.6979 7.11979 27.5938 7.14062C27.5 7.16146 27.3854 7.1875 27.25 7.21875C27.2708 7.13542 27.2812 7.05208 27.2812 6.96875C27.2917 6.875 27.3021 6.79167 27.3125 6.71875C27.3229 6.63542 27.3281 6.55729 27.3281 6.48438V6.25C27.3281 6.17708 27.3281 6.09896 27.3281 6.01562C27.3385 5.93229 27.349 5.84896 27.3594 5.76562L28.5938 5.79688C28.5417 5.34896 28.5208 4.94792 28.5312 4.59375C28.5417 4.22917 28.5573 3.91667 28.5781 3.65625C28.6094 3.35417 28.651 3.08854 28.7031 2.85938C28.776 2.57812 28.875 2.31771 29 2.07812C29.125 1.83854 29.2969 1.63542 29.5156 1.46875C29.7344 1.30208 30.0052 1.17708 30.3281 1.09375C30.651 1 31.0417 0.953125 31.5 0.953125C32.0208 0.963542 32.4323 1.03125 32.7344 1.15625C33.0365 1.27083 33.2604 1.42188 33.4062 1.60938C33.5521 1.78646 33.6354 1.98958 33.6562 2.21875C33.6771 2.44792 33.6719 2.67188 33.6406 2.89062C33.6198 3.09896 33.5833 3.29167 33.5312 3.46875C33.4896 3.64583 33.474 3.77604 33.4844 3.85938C33.4948 3.92188 33.5208 4.00521 33.5625 4.10938C33.5938 4.19271 33.6406 4.29688 33.7031 4.42188C33.776 4.54688 33.8802 4.6875 34.0156 4.84375C33.849 4.82292 33.6823 4.80729 33.5156 4.79688C33.349 4.77604 33.1927 4.76042 33.0469 4.75C32.8802 4.73958 32.7188 4.73438 32.5625 4.73438C32.4062 4.74479 32.2448 4.75521 32.0781 4.76562C31.9323 4.78646 31.776 4.80729 31.6094 4.82812C31.4427 4.83854 31.2865 4.86979 31.1406 4.92188C31.349 4.77604 31.5104 4.625 31.625 4.46875C31.7396 4.3125 31.8281 4.17188 31.8906 4.04688C31.9635 3.90104 32.0104 3.75521 32.0312 3.60938C32.0417 3.43229 32.0312 3.23438 32 3.01562C31.9792 2.78646 31.9323 2.57812 31.8594 2.39062C31.7865 2.20312 31.6979 2.05208 31.5938 1.9375C31.4896 1.8125 31.3646 1.76562 31.2188 1.79688C31 1.88021 30.7969 2.08333 30.6094 2.40625C30.4531 2.67708 30.3021 3.08854 30.1562 3.64062C30.0104 4.18229 29.9167 4.9375 29.875 5.90625C30.0729 5.92708 30.2552 5.94271 30.4219 5.95312C30.599 5.95312 30.7552 5.95833 30.8906 5.96875C31.0469 5.97917 31.1927 5.98438 31.3281 5.98438C31.4635 5.98438 31.6146 5.97917 31.7812 5.96875C31.9271 5.95833 32.099 5.95312 32.2969 5.95312C32.4948 5.94271 32.7135 5.92708 32.9531 5.90625L32.9219 6.71875C32.7344 6.73958 32.5521 6.75521 32.375 6.76562C32.1979 6.77604 32.0417 6.78646 31.9062 6.79688C31.75 6.80729 31.6042 6.81771 31.4688 6.82812C31.3229 6.83854 31.1719 6.84896 31.0156 6.85938C30.8802 6.86979 30.724 6.88542 30.5469 6.90625C30.3802 6.92708 30.2031 6.94792 30.0156 6.96875C30.1615 8.14583 30.2865 9.09896 30.3906 9.82812C30.5052 10.5469 30.6042 11.1042 30.6875 11.5C30.7708 11.9688 30.8438 12.3021 30.9062 12.5C30.9688 12.6667 31.0417 12.8125 31.125 12.9375C31.1979 13.0521 31.2865 13.1615 31.3906 13.2656C31.4948 13.3698 31.6146 13.4375 31.75 13.4688C31.4167 13.4167 31.1302 13.375 30.8906 13.3438C30.651 13.3229 30.4479 13.3073 30.2812 13.2969C30.0938 13.2865 29.9323 13.2812 29.7969 13.2812C29.6719 13.2917 29.5208 13.3073 29.3438 13.3281C29.0417 13.3594 28.625 13.4375 28.0938 13.5625ZM32.0938 5.01562C32.3021 5.04688 32.4896 5.07292 32.6562 5.09375C32.8125 5.10417 32.9531 5.11458 33.0781 5.125C33.2135 5.13542 33.3438 5.14062 33.4688 5.14062C33.5833 5.14062 33.7292 5.13542 33.9062 5.125C34.0521 5.11458 34.2396 5.10417 34.4688 5.09375C34.7083 5.07292 34.9896 5.04688 35.3125 5.01562C35.2917 5.05729 35.25 5.1875 35.1875 5.40625C35.125 5.61458 35.0625 5.875 35 6.1875C34.9375 6.48958 34.8802 6.82812 34.8281 7.20312C34.7865 7.56771 34.7656 7.93229 34.7656 8.29688C34.776 8.65104 34.8229 8.98958 34.9062 9.3125C34.9896 9.625 35.125 9.88021 35.3125 10.0781C35.7083 10.4844 36.0573 10.7292 36.3594 10.8125C36.6719 10.8958 36.9427 10.8854 37.1719 10.7812C37.401 10.6771 37.5885 10.5208 37.7344 10.3125C37.8802 10.1042 37.9844 9.91146 38.0469 9.73438C38.2031 9.25521 38.2969 8.75 38.3281 8.21875C38.349 7.76042 38.3125 7.25 38.2188 6.6875C38.125 6.125 37.901 5.55208 37.5469 4.96875C37.8177 4.98958 38.0521 5.00521 38.25 5.01562C38.4479 5.02604 38.6198 5.03646 38.7656 5.04688C38.9323 5.05729 39.0781 5.06771 39.2031 5.07812C39.3177 5.08854 39.4531 5.08854 39.6094 5.07812C39.7448 5.07812 39.9062 5.07292 40.0938 5.0625C40.2917 5.04167 40.5104 5.02083 40.75 5C40.7917 6.02083 40.8281 6.93229 40.8594 7.73438C40.8906 8.52604 40.9115 9.22917 40.9219 9.84375C40.9427 10.4479 40.9531 10.974 40.9531 11.4219C40.9531 11.8594 40.9531 12.2292 40.9531 12.5312C40.9427 13.25 40.9115 13.724 40.8594 13.9531C40.776 14.276 40.625 14.599 40.4062 14.9219C40.1979 15.2448 39.9323 15.5312 39.6094 15.7812C39.2865 16.0417 38.9115 16.2396 38.4844 16.375C38.0677 16.5208 37.6094 16.5729 37.1094 16.5312C36.6198 16.4896 36.2292 16.4219 35.9375 16.3281C35.6562 16.2448 35.4323 16.1458 35.2656 16.0312C35.1094 15.9167 34.9948 15.7969 34.9219 15.6719C34.8594 15.5469 34.8125 15.4167 34.7812 15.2812C34.75 15.1562 34.7188 15.0365 34.6875 14.9219C34.6562 14.8073 34.5938 14.7083 34.5 14.625C34.3854 14.5312 34.2656 14.4375 34.1406 14.3438C34.026 14.2604 33.901 14.1771 33.7656 14.0938C33.6406 14.0104 33.5156 13.9427 33.3906 13.8906L36.7188 13.7031C36.625 13.8281 36.5573 13.9427 36.5156 14.0469C36.474 14.151 36.4479 14.2396 36.4375 14.3125C36.4271 14.4062 36.4323 14.4844 36.4531 14.5469C36.4948 14.6719 36.5677 14.8073 36.6719 14.9531C36.7865 15.1094 36.9323 15.2292 37.1094 15.3125C37.2865 15.4062 37.4948 15.4375 37.7344 15.4062C37.9844 15.375 38.2656 15.2448 38.5781 15.0156C38.8385 14.8177 39.0573 14.5 39.2344 14.0625C39.3802 13.6875 39.4948 13.1615 39.5781 12.4844C39.6615 11.8073 39.6458 10.9167 39.5312 9.8125C39.3438 10.4583 39.0885 10.9531 38.7656 11.2969C38.4427 11.6406 38.1198 11.8906 37.7969 12.0469C37.4219 12.2344 37.0312 12.3333 36.625 12.3438C36.0833 12.3229 35.6198 12.2552 35.2344 12.1406C34.849 12.0156 34.5312 11.849 34.2812 11.6406C34.0312 11.4323 33.8333 11.1875 33.6875 10.9062C33.5521 10.6146 33.4531 10.2917 33.3906 9.9375C33.3281 9.58333 33.2969 9.22917 33.2969 8.875C33.2969 8.51042 33.2969 8.17188 33.2969 7.85938C33.3073 7.54688 33.3125 7.26562 33.3125 7.01562C33.3125 6.75521 33.2865 6.54688 33.2344 6.39062C33.1719 6.23438 33.0885 6.07812 32.9844 5.92188C32.901 5.78646 32.7865 5.64062 32.6406 5.48438C32.4844 5.31771 32.3021 5.16146 32.0938 5.01562Z" fill="#232F3E"/>
</svg>
